<?xml version="1.0" encoding="utf-8"?>
<!-- Generator: Adobe Illustrator 17.0.0, SVG Export Plug-In . SVG Version: 6.00 Build 0)  -->
<!DOCTYPE svg PUBLIC "-//W3C//DTD SVG 1.1//EN" "http://www.w3.org/Graphics/SVG/1.1/DTD/svg11.dtd">
<svg version="1.1" id="Слой_1" xmlns="http://www.w3.org/2000/svg" xmlns:xlink="http://www.w3.org/1999/xlink" x="0px" y="0px"
	 width="1775px" height="1227px" viewBox="0 0 1775 1227" enable-background="new 0 0 1775 1227" xml:space="preserve">
<g transform="translate(0.000000,108.000000) scale(0.100000,-0.100000)">
	<path d="M4873.214,950.631c-222.087-70.133-327.287-198.71-327.287-362.353c0-222.088-420.798-900.039-1168.882-1916.967
		c-93.511-128.577-315.598-268.843-479.242-303.909l-303.909-81.822l58.444-1344.214c35.067-900.039,11.689-1507.858-93.51-1870.211
		c-151.955-537.686-350.665-713.018-350.665-303.91c0,151.955-128.577,268.843-409.109,362.354
		c-233.776,81.822-502.619,268.843-607.819,420.798c-233.776,362.353-432.486,350.665-596.13-11.689
		c-70.133-163.644-210.399-292.221-315.598-292.221c-128.577,0-175.332-116.888-175.332-409.108
		c0-397.42,151.955-549.375,268.843-257.154c35.066,70.133,70.133,0,70.133-175.332c11.689-233.777-46.755-327.287-187.021-327.287
		c-175.332,0-187.021-23.378-35.066-116.888c116.888-70.133,128.577-116.888,35.066-116.888
		c-81.822,0-151.955-46.755-151.955-116.888c0-198.71,666.263-140.266,748.084,70.133
		c128.577,327.287,70.133,631.196-105.199,631.196c-93.511,0-175.332,58.444-175.332,116.888
		c0,151.955,1016.927,151.955,1098.749,11.689c46.755-58.444,11.689-128.577-58.444-151.955
		c-70.133-23.378-140.266-374.042-151.955-829.906c-11.689-420.798-58.444-806.529-105.199-853.284
		c-140.266-140.266-689.64,70.133-619.507,245.465c35.066,105.199-35.066,175.333-198.71,210.399l-257.154,46.755l268.843,23.378
		c397.42,23.377,303.909,245.465-105.199,245.465c-338.976,0-350.665-11.689-315.598-490.931l35.066-502.619l993.55,23.377
		c2372.831,70.133,2817.006,58.444,4020.954-58.444c713.018-70.133,1309.148-187.021,1355.903-257.154
		c222.088-362.354,4605.395-759.773,4839.171-444.175c81.822,105.2,654.574,245.465,1531.236,385.731
		c2162.432,315.598,2489.719,338.976,2688.429,175.332c128.576-105.199,292.22-70.133,783.15,175.333
		c338.977,175.332,701.33,362.354,794.84,409.108c210.398,105.2,303.91,1145.504,128.576,1320.837
		c-70.133,70.133-128.576,268.843-128.576,432.486c0,187.021-140.266,432.486-350.664,642.885
		c-327.287,315.598-374.043,327.287-794.84,198.71c-853.284-257.154-876.662-233.776-818.218,607.819
		c58.444,713.018,46.755,771.462-362.354,1320.837c-748.085,1028.616-876.661,1344.214-490.931,1239.015
		c268.843-70.133,455.864,187.021,233.776,327.287c-280.531,175.332-689.641,116.888-701.329-93.511
		c-23.378-479.242-116.888-677.952-502.619-1063.683l-409.108-420.798l-222.088,280.532l-210.398,268.843l-397.42-888.35
		c-327.287-759.773-444.176-900.039-724.707-970.172c-268.843-46.755-327.287-116.888-257.154-257.154
		c46.756-116.888,105.199-374.042,140.266-572.752c81.822-607.818-233.776-479.242-841.595,350.665
		C9770.83-3456.054,8391.55-1948.197,8227.906-1948.197c-58.444,0-432.487-292.221-818.218-642.885
		s-748.084-642.885-806.528-642.885c-46.755,0-58.444,175.332-23.378,385.731c175.333,841.595,151.955,946.794-268.843,1157.193
		c-292.221,140.266-525.997,444.175-900.039,1110.438C4814.771,483.078,4756.326,857.12,5177.124,857.12
		c163.644,0,327.287,58.444,362.354,116.888C5632.988,1114.274,5294.012,1114.274,4873.214,950.631z M5644.677-2310.55
		c385.731-58.444,701.329-116.888,713.018-140.266c11.689-11.689,58.444-245.465,93.511-514.308
		c35.066-338.976,11.688-537.686-105.2-631.196c-222.087-175.332-210.399-572.752,11.689-572.752
		c128.577,0,175.332-128.577,175.332-455.864v-444.175l-806.528-140.266c-455.864-70.133-970.172-128.577-1168.882-128.577
		c-327.287,0-338.976,23.377-327.287,444.175c11.688,409.108,0,432.486-338.976,420.797
		c-303.909-11.689-362.354,23.378-338.976,233.776c11.689,128.577,35.066,362.354,46.755,514.308
		c11.689,187.021,81.822,257.154,303.909,257.154c268.843,0,292.221,46.755,292.221,467.553
		c0,338.976-46.755,467.553-175.333,467.553c-93.51,0-175.332,58.444-175.332,116.888c0,70.133,128.577,116.888,292.22,116.888
		s292.221,58.444,292.221,128.577c0,81.822,93.51,105.199,268.843,46.755C4838.148-2170.284,5270.634-2252.106,5644.677-2310.55z
		 M8449.993-4239.206c35.067-105.199,46.756-233.776,0-292.22c-35.066-58.444,23.378-140.266,128.577-175.333
		c163.644-70.133,140.267-128.577-128.577-409.109c-303.909-315.598-315.598-350.665-116.888-490.93
		c187.021-140.266,198.71-292.221,163.644-1203.949l-58.444-1040.305l-514.308,46.755
		c-514.308,35.067-1203.948,362.354-771.462,362.354c315.598,0,257.154,467.553-58.444,479.242h-268.843l268.843,105.2
		c257.154,105.199,362.354,350.665,140.266,350.665c-58.444,0-116.888-58.444-116.888-128.577
		c0-58.444-46.755-81.822-116.888-46.755c-175.333,105.199-140.266,292.221,58.444,292.221c93.511,0,175.333,70.133,175.333,163.644
		c0,93.51,93.51,198.709,210.398,222.087c105.2,35.066,0,58.444-245.465,70.133c-490.931,11.689-549.375,257.154-81.822,374.042
		l292.22,81.822l-303.909,11.688c-444.175,23.378-397.42,362.354,58.444,374.042l362.354,23.377l-409.108,81.822l-409.109,81.822
		l490.931,23.377c525.997,11.689,806.528,280.532,666.263,642.885c-58.444,140.266,0,187.021,222.087,187.021
		C8251.283-4052.184,8414.927-4134.006,8449.993-4239.206z M13172.277-4356.094c444.175-58.444,490.93-93.51,420.797-303.909
		c-46.755-163.644-23.377-210.399,58.444-163.644c70.133,46.755,128.577,23.377,128.577-35.066
		c0-70.133-46.755-128.577-116.889-128.577c-58.443,0-116.888-70.133-116.888-151.955c0-93.511-105.199-257.154-222.088-362.354
		c-222.087-198.71-724.707-198.71-1437.725,0c-303.909,93.511-268.843,514.308,35.066,514.308
		c198.71,0,233.776,58.444,198.71,292.221C12038.462-4321.027,12260.549-4250.894,13172.277-4356.094z M11068.289-6705.546
		l46.756-1203.949h-1016.928c-981.86,0-1016.928,11.689-958.483,245.465c46.756,198.71,35.066,222.087-70.133,116.888
		c-198.71-198.71-315.598-151.955-315.598,105.199c0,175.333,81.821,233.776,327.286,245.465l315.599,11.689l-292.221,81.822
		c-233.776,58.444-292.221,151.955-303.909,455.864c-11.688,362.354,105.199,490.931,245.465,257.154
		c140.267-222.088,385.731-116.888,444.176,187.021c70.133,362.354-233.776,525.997-444.176,245.465
		c-198.71-268.843-268.843-245.465-245.465,70.133c11.688,222.087,93.511,268.843,654.574,315.598
		c350.664,35.066,853.283,70.133,1110.438,58.444h467.553L11068.289-6705.546z M3400.423-6273.06
		c58.444,0,140.266,105.199,175.333,233.776c70.133,280.532,151.955,292.22,455.864,58.444
		c268.843-210.398,677.952-233.776,561.063-35.066c-58.444,93.511-23.378,105.2,140.266,35.066
		c420.797-175.332,724.707-198.71,806.529-58.444c58.444,93.51,128.577,70.133,222.087-70.133
		c116.888-151.955,198.71-163.644,397.42-58.444c163.644,81.822,268.843,93.511,315.598,11.689
		c46.755-70.133,35.066-116.888-23.377-105.2c-292.221,46.755-409.109-23.377-292.221-163.643
		c70.133-81.822,81.822-210.399,23.377-303.91c-46.755-93.51-70.133-233.776-35.066-327.287
		c70.133-187.021-748.084-210.399-1706.568-35.067c-362.353,58.444-970.172,151.955-1355.903,198.71
		c-385.731,46.755-584.441,93.511-444.175,116.888c280.532,58.444,338.976,502.62,70.133,502.62
		c-81.822,0-151.955,81.822-151.955,187.021c0,128.577,70.133,175.333,233.776,128.577c128.577-35.066,268.843,0,315.598,70.133
		c58.444,93.511,105.199,46.755,128.577-116.888C3260.157-6156.172,3330.29-6273.06,3400.423-6273.06z M13067.077-6331.504
		c46.756-257.154,245.466-420.797,397.42-327.287c46.756,35.067,70.134,128.577,35.067,222.088
		c-70.134,175.332,35.066,210.399,327.286,93.51c105.2-35.066,187.021-140.266,187.021-233.776
		c0-93.51,81.821-163.643,175.332-163.643s175.333,81.821,175.333,175.332s105.199,175.333,233.776,175.333
		c128.576,0,233.776-81.822,233.776-175.333s81.821-175.332,175.332-175.332s175.332,93.51,175.332,198.71
		c0,140.266,35.066,163.643,128.577,70.133c187.021-187.021,0-724.707-292.221-806.529
		c-140.266-35.066-724.707-128.577-1309.147-198.71c-946.795-128.577-1367.592-151.955-2092.299-81.822l-233.776,11.689
		l233.776,105.199c175.332,70.133,187.021,105.2,46.755,105.2c-268.843,11.688-222.087,350.665,58.444,444.175
		c233.776,70.133,233.776,81.822-46.755,163.644l-292.221,81.822l327.287,11.689c432.486,11.689,397.42,198.71-58.444,292.22
		c-198.71,35.067-338.976,105.2-303.909,140.266s257.153,23.377,490.931-11.689c397.42-81.822,420.797-105.199,420.797-549.375
		c0-268.843,46.756-432.486,116.889-385.731c70.133,35.066,116.888,268.843,116.888,514.308s35.066,479.242,81.822,525.997
		C12728.102-5969.151,13020.322-6097.728,13067.077-6331.504z"/>
	<path d="M16585.412-7664.03c-350.664-175.333-1028.616-385.731-1496.169-467.553c-970.172-175.333-1051.993-432.487-93.51-315.598
		c502.619,58.444,561.063,46.755,362.353-70.133c-128.576-81.822-561.063-140.266-958.482-151.955
		c-409.109,0-736.396-46.755-736.396-105.199c0-46.755-128.576-58.444-292.22-23.378c-187.021,46.756-292.221,23.378-292.221-58.443
		c0-105.2,315.598-116.889,1203.948-58.444c654.574,35.066,1320.837,93.511,1484.48,116.888
		c163.644,23.378,187.021,11.689,58.444-23.377l-233.776-46.756l233.776-93.511c175.332-70.133,116.888-93.51-233.776-105.199
		c-257.154,0-935.106-23.377-1507.858-46.755c-888.351-46.756-1063.683-23.378-1250.704,163.644
		c-128.576,128.577-268.843,222.087-338.976,222.087c-187.021,0-140.266-233.776,58.444-303.909
		c93.511-46.755,175.332-140.266,175.332-222.087c0-187.021,315.599-327.287,374.043-163.644c35.066,93.51,257.153,81.821,724.706,0
		c374.043-70.133,981.861-105.2,1344.215-70.133c619.508,46.755,607.818,46.755-222.088-128.577
		c-479.241-93.511-1028.616-222.088-1227.326-280.532c-187.021-58.444-607.818-128.577-935.105-163.644l-584.441-70.133
		l467.554,163.644l467.553,163.644l-642.886,35.066c-350.664,11.688-736.396,23.378-841.595,11.688
		c-128.577-11.688-175.332,35.067-140.266,151.955c58.443,151.955,23.377,151.955-350.665,0
		c-222.088-93.511-502.619-175.332-619.508-175.332c-175.332,0-175.332,23.377,35.067,187.021
		c210.398,175.333,210.398,175.333-35.067,105.2c-572.752-151.955-1437.725-257.154-1437.725-163.644
		c0,58.443,140.266,105.199,327.287,116.888c175.332,0,420.798,58.444,549.375,116.889c163.643,70.133,35.066,81.821-409.109,46.755
		c-479.241-46.755-584.44-23.378-409.108,58.444c187.021,93.511,128.577,105.199-210.398,58.444
		c-245.466-46.756-525.997-105.2-619.508-140.267s-163.644-11.688-163.644,58.444c0,58.444,116.889,140.266,257.154,175.332
		c140.266,46.756,233.776,93.511,198.71,128.577s-397.42-23.377-806.529-116.888c-420.797-93.511-911.728-151.955-1110.438-140.266
		c-292.221,35.066-210.399,70.133,409.109,233.776l759.773,198.71l-642.885-58.444c-350.665-23.378-1157.193-58.444-1776.701-70.133
		c-970.172-11.689-1168.882,11.688-1379.281,198.71l-245.465,222.087l233.776,93.511
		c140.266,46.756,245.465,163.644,245.465,268.843c0,128.577,140.266,175.333,561.063,175.333
		c303.91,0,619.508,46.755,713.018,105.199c268.843,175.333-2314.386,292.221-2898.827,128.577
		c-280.532-70.133-759.773-116.888-1051.994-105.199c-888.35,46.755-1063.683,11.689-1063.683-222.088
		c0-163.643,175.332-268.842,724.707-444.175c537.686-151.954,864.973-338.976,1203.948-689.64
		c561.063-584.441,923.417-829.906,1987.099-1414.348c748.084-397.42,911.728-444.175,1905.278-490.931
		c794.84-35.066,1274.082,0,1788.39,151.955c642.885,175.332,724.707,175.332,911.728,11.688
		c175.332-163.644,713.018-187.021,4067.709-187.021c4885.928,0,4476.818-198.71,4476.818,2174.12
		C17637.406-7067.9,17672.473-7114.655,16585.412-7664.03z"/>
</g>
</svg>
