<svg width="1366" height="667" xmlns="http://www.w3.org/2000/svg"><g><path d="M-45,-47L-49,48L42,48Z" fill="#ea3a2e" stroke="#ea3a2e"/><path d="M-45,-47L42,48L41,-50Z" fill="#ec2e27" stroke="#ec2e27"/><path d="M41,-50L42,48L132,-47Z" fill="#f23c2f" stroke="#f23c2f"/><path d="M41,-50L132,-47L229,-46Z" fill="#f8392d" stroke="#f8392d"/><path d="M41,-50L229,-46L317,-46Z" fill="#fe4835" stroke="#fe4835"/><path d="M41,-50L317,-46L401,-46Z" fill="#fe543c" stroke="#fe543c"/><path d="M41,-50L401,-46L495,-46Z" fill="#fe6144" stroke="#fe6144"/><path d="M41,-50L495,-46L850,-48Z" fill="#ff7657" stroke="#ff7657"/><path d="M132,-47L42,48L137,49Z" fill="#f5573d" stroke="#f5573d"/><path d="M132,-47L137,49L229,-46Z" fill="#fb543c" stroke="#fb543c"/><path d="M229,-46L137,49L229,46Z" fill="#fe6d49" stroke="#fe6d49"/><path d="M229,-46L229,46L317,-46Z" fill="#fe6847" stroke="#fe6847"/><path d="M317,-46L229,46L317,49Z" fill="#fe8055" stroke="#fe8055"/><path d="M317,-46L317,49L401,-46Z" fill="#ff7b52" stroke="#ff7b52"/><path d="M401,-46L317,49L409,44Z" fill="#ff9360" stroke="#ff9360"/><path d="M401,-46L409,44L495,-46Z" fill="#ff875e" stroke="#ff875e"/><path d="M495,-46L409,44L492,44Z" fill="#ff9b6b" stroke="#ff9b6b"/><path d="M495,-46L492,44L581,-46Z" fill="#ff8e69" stroke="#ff8e69"/><path d="M495,-46L581,-46L850,-48Z" fill="#fa7f61" stroke="#fa7f61"/><path d="M581,-46L492,44L587,45Z" fill="#ffa277" stroke="#ffa277"/><path d="M581,-46L587,45L671,-42Z" fill="#fd936f" stroke="#fd936f"/><path d="M581,-46L671,-42L761,-45Z" fill="#f77f5d" stroke="#f77f5d"/><path d="M581,-46L761,-45L850,-48Z" fill="#f17b55" stroke="#f17b55"/><path d="M671,-42L587,45L670,48Z" fill="#faa475" stroke="#faa475"/><path d="M671,-42L670,48L761,-45Z" fill="#f49063" stroke="#f49063"/><path d="M761,-45L670,48L768,48Z" fill="#f1a069" stroke="#f1a069"/><path d="M761,-45L768,48L850,-48Z" fill="#ea8b57" stroke="#ea8b57"/><path d="M850,-48L768,48L857,46Z" fill="#e49a5d" stroke="#e49a5d"/><path d="M850,-48L857,46L949,-43Z" fill="#d9834d" stroke="#d9834d"/><path d="M850,-48L949,-43L1038,-47Z" fill="#ce6c3c" stroke="#ce6c3c"/><path d="M949,-43L857,46L947,41Z" fill="#d39252" stroke="#d39252"/><path d="M949,-43L947,41L1038,-47Z" fill="#c87a42" stroke="#c87a42"/><path d="M1038,-47L947,41L1038,49Z" fill="#bf884a" stroke="#bf884a"/><path d="M1038,-47L1038,49L1124,-40Z" fill="#ad7040" stroke="#ad7040"/><path d="M1038,-47L1124,-40L1215,-40Z" fill="#9b5734" stroke="#9b5734"/><path d="M1038,-47L1215,-40L1396,-43Z" fill="#804930" stroke="#804930"/><path d="M1038,-47L1396,-43L1480,-43Z" fill="#803c2c" stroke="#803c2c"/><path d="M1124,-40L1038,49L1127,40Z" fill="#a37d47" stroke="#a37d47"/><path d="M1124,-40L1127,40L1215,-40Z" fill="#91633c" stroke="#91633c"/><path d="M1215,-40L1127,40L1213,46Z" fill="#887044" stroke="#887044"/><path d="M1215,-40L1213,46L1309,42Z" fill="#806841" stroke="#806841"/><path d="M1215,-40L1309,42L1304,-40Z" fill="#805237" stroke="#805237"/><path d="M1215,-40L1304,-40L1396,-43Z" fill="#803e2d" stroke="#803e2d"/><path d="M1304,-40L1309,42L1396,-43Z" fill="#804934" stroke="#804934"/><path d="M1396,-43L1309,42L1397,48Z" fill="#80563c" stroke="#80563c"/><path d="M1396,-43L1397,48L1480,-43Z" fill="#803e31" stroke="#803e31"/><path d="M1480,-43L1397,48L1489,47Z" fill="#804b39" stroke="#804b39"/><path d="M-49,48L-49,222L-42,132Z" fill="#e7734f" stroke="#e7734f"/><path d="M-49,48L-42,132L42,48Z" fill="#ea5d41" stroke="#ea5d41"/><path d="M42,48L-42,132L41,139Z" fill="#ed754e" stroke="#ed754e"/><path d="M42,48L41,139L135,131Z" fill="#f28356" stroke="#f28356"/><path d="M42,48L135,131L137,49Z" fill="#f57a50" stroke="#f57a50"/><path d="M137,49L135,131L220,135Z" fill="#fb9861" stroke="#fb9861"/><path d="M137,49L220,135L229,46Z" fill="#fe905c" stroke="#fe905c"/><path d="M229,46L220,135L314,131Z" fill="#feab6c" stroke="#feab6c"/><path d="M229,46L314,131L317,49Z" fill="#fea367" stroke="#fea367"/><path d="M317,49L314,131L409,134Z" fill="#ffbf78" stroke="#ffbf78"/><path d="M317,49L409,134L409,44Z" fill="#ffb673" stroke="#ffb673"/><path d="M409,44L409,134L492,44Z" fill="#ffbb7a" stroke="#ffbb7a"/><path d="M492,44L409,134L494,134Z" fill="#ffce87" stroke="#ffce87"/><path d="M492,44L494,134L587,45Z" fill="#ffc386" stroke="#ffc386"/><path d="M587,45L494,134L587,137Z" fill="#ffd694" stroke="#ffd694"/><path d="M587,45L587,137L670,48Z" fill="#fcc88b" stroke="#fcc88b"/><path d="M670,48L587,137L671,135Z" fill="#fad691" stroke="#fad691"/><path d="M670,48L671,135L768,48Z" fill="#f4c47f" stroke="#f4c47f"/><path d="M768,48L671,135L769,133Z" fill="#f1d284" stroke="#f1d284"/><path d="M768,48L769,133L856,131Z" fill="#e9ce7b" stroke="#e9ce7b"/><path d="M768,48L856,131L857,46Z" fill="#e4bc6f" stroke="#e4bc6f"/><path d="M857,46L856,131L947,41Z" fill="#d9b668" stroke="#d9b668"/><path d="M947,41L856,131L947,138Z" fill="#d3c46e" stroke="#d3c46e"/><path d="M947,41L947,138L1038,49Z" fill="#c8b15f" stroke="#c8b15f"/><path d="M1038,49L947,138L1036,138Z" fill="#bfbd68" stroke="#bfbd68"/><path d="M1038,49L1036,138L1128,138Z" fill="#acb565" stroke="#acb565"/><path d="M1038,49L1128,138L1127,40Z" fill="#a39f5a" stroke="#a39f5a"/><path d="M1127,40L1128,138L1213,46Z" fill="#919657" stroke="#919657"/><path d="M1213,46L1128,138L1211,137Z" fill="#89a460" stroke="#89a460"/><path d="M1213,46L1211,137L1304,137Z" fill="#809b5e" stroke="#809b5e"/><path d="M1213,46L1304,137L1309,42Z" fill="#808652" stroke="#808652"/><path d="M1309,42L1304,137L1396,131Z" fill="#808c59" stroke="#808c59"/><path d="M1309,42L1396,131L1397,48Z" fill="#80784e" stroke="#80784e"/><path d="M1397,48L1396,131L1484,133Z" fill="#808055" stroke="#808055"/><path d="M1397,48L1484,133L1489,47Z" fill="#806d4c" stroke="#806d4c"/><path d="M1489,47L1484,133L1485,225Z" fill="#80865d" stroke="#80865d"/><path d="M1489,47L1485,225L1490,583Z" fill="#809f8d" stroke="#809f8d"/><path d="M-42,132L-49,222L41,139Z" fill="#ea885c" stroke="#ea885c"/><path d="M41,139L-49,222L41,226Z" fill="#ec9a6a" stroke="#ec9a6a"/><path d="M41,139L41,226L139,230Z" fill="#f2a973" stroke="#f2a973"/><path d="M41,139L139,230L135,131Z" fill="#f5a66d" stroke="#f5a66d"/><path d="M135,131L139,230L220,135Z" fill="#fbb374" stroke="#fbb374"/><path d="M220,135L139,230L225,222Z" fill="#fec681" stroke="#fec681"/><path d="M220,135L225,222L314,131Z" fill="#fec67e" stroke="#fec67e"/><path d="M314,131L225,222L318,222Z" fill="#feda8c" stroke="#feda8c"/><path d="M314,131L318,222L409,134Z" fill="#ffda8a" stroke="#ffda8a"/><path d="M409,134L318,222L407,223Z" fill="#ffed98" stroke="#ffed98"/><path d="M409,134L407,223L494,134Z" fill="#ffe796" stroke="#ffe796"/><path d="M494,134L407,223L499,223Z" fill="#fff6a4" stroke="#fff6a4"/><path d="M494,134L499,223L587,137Z" fill="#ffefa3" stroke="#ffefa3"/><path d="M587,137L499,223L581,226Z" fill="#fffdb0" stroke="#fffdb0"/><path d="M587,137L581,226L671,229Z" fill="#fdfeb1" stroke="#fdfeb1"/><path d="M587,137L671,229L671,135Z" fill="#faf2a4" stroke="#faf2a4"/><path d="M671,135L671,229L765,224Z" fill="#f4faa5" stroke="#f4faa5"/><path d="M671,135L765,224L769,133Z" fill="#f1ed96" stroke="#f1ed96"/><path d="M769,133L765,224L851,222Z" fill="#eaf698" stroke="#eaf698"/><path d="M769,133L851,222L856,131Z" fill="#e4e78b" stroke="#e4e78b"/><path d="M856,131L851,222L947,138Z" fill="#d9e285" stroke="#d9e285"/><path d="M947,138L851,222L944,230Z" fill="#d4ec8c" stroke="#d4ec8c"/><path d="M947,138L944,230L1034,226Z" fill="#c8e786" stroke="#c8e786"/><path d="M947,138L1034,226L1036,138Z" fill="#bfd97b" stroke="#bfd97b"/><path d="M1036,138L1034,226L1121,221Z" fill="#addb81" stroke="#addb81"/><path d="M1036,138L1121,221L1128,138Z" fill="#a4cb76" stroke="#a4cb76"/><path d="M1128,138L1121,221L1212,224Z" fill="#92ce7d" stroke="#92ce7d"/><path d="M1128,138L1212,224L1211,137Z" fill="#89bf73" stroke="#89bf73"/><path d="M1211,137L1212,224L1304,137Z" fill="#80b771" stroke="#80b771"/><path d="M1304,137L1212,224L1310,229Z" fill="#80bd79" stroke="#80bd79"/><path d="M1304,137L1310,229L1394,226Z" fill="#80b476" stroke="#80b476"/><path d="M1304,137L1394,226L1396,131Z" fill="#80a46b" stroke="#80a46b"/><path d="M1396,131L1394,226L1484,133Z" fill="#809b68" stroke="#809b68"/><path d="M1484,133L1394,226L1485,225Z" fill="#80a471" stroke="#80a471"/><path d="M-49,222L-48,582L-47,320Z" fill="#e78c63" stroke="#e78c63"/><path d="M-49,222L-47,320L43,310Z" fill="#ea9483" stroke="#ea9483"/><path d="M-49,222L43,310L41,226Z" fill="#ec9b7c" stroke="#ec9b7c"/><path d="M41,226L43,310L139,230Z" fill="#f2a985" stroke="#f2a985"/><path d="M139,230L43,310L140,313Z" fill="#f5b193" stroke="#f5b193"/><path d="M139,230L140,313L228,316Z" fill="#fbc09b" stroke="#fbc09b"/><path d="M139,230L228,316L225,222Z" fill="#fec796" stroke="#fec796"/><path d="M225,222L228,316L318,222Z" fill="#fed39c" stroke="#fed39c"/><path d="M318,222L228,316L317,319Z" fill="#fedaab" stroke="#fedaab"/><path d="M318,222L317,319L402,315Z" fill="#ffe6b2" stroke="#ffe6b2"/><path d="M318,222L402,315L407,223Z" fill="#ffedab" stroke="#ffedab"/><path d="M407,223L402,315L493,315Z" fill="#fff3bd" stroke="#fff3bd"/><path d="M407,223L493,315L499,223Z" fill="#fff6b7" stroke="#fff6b7"/><path d="M499,223L493,315L586,312Z" fill="#fffbc9" stroke="#fffbc9"/><path d="M499,223L586,312L581,226Z" fill="#fffdc3" stroke="#fffdc3"/><path d="M581,226L586,312L671,229Z" fill="#fdfec4" stroke="#fdfec4"/><path d="M671,229L586,312L677,312Z" fill="#f9fdc9" stroke="#f9fdc9"/><path d="M671,229L677,312L765,224Z" fill="#f4fab8" stroke="#f4fab8"/><path d="M765,224L677,312L769,314Z" fill="#f0f9bd" stroke="#f0f9bd"/><path d="M765,224L769,314L851,222Z" fill="#eaf6ac" stroke="#eaf6ac"/><path d="M851,222L769,314L853,313Z" fill="#e4f4b2" stroke="#e4f4b2"/><path d="M851,222L853,313L944,230Z" fill="#d9efa3" stroke="#d9efa3"/><path d="M944,230L853,313L950,318Z" fill="#d3eca8" stroke="#d3eca8"/><path d="M944,230L950,318L1034,314Z" fill="#c8e7a2" stroke="#c8e7a2"/><path d="M944,230L1034,314L1034,226Z" fill="#c0e398" stroke="#c0e398"/><path d="M1034,226L1034,314L1121,221Z" fill="#aedb94" stroke="#aedb94"/><path d="M1121,221L1034,314L1126,317Z" fill="#a4d79d" stroke="#a4d79d"/><path d="M1121,221L1126,317L1212,224Z" fill="#92ce90" stroke="#92ce90"/><path d="M1212,224L1126,317L1211,319Z" fill="#89ca99" stroke="#89ca99"/><path d="M1212,224L1211,319L1302,317Z" fill="#80c297" stroke="#80c297"/><path d="M1212,224L1302,317L1310,229Z" fill="#80bd8c" stroke="#80bd8c"/><path d="M1310,229L1302,317L1397,319Z" fill="#80b492" stroke="#80b492"/><path d="M1310,229L1397,319L1394,226Z" fill="#80b089" stroke="#80b089"/><path d="M1394,226L1397,319L1484,314Z" fill="#80a890" stroke="#80a890"/><path d="M1394,226L1484,314L1485,225Z" fill="#80a485" stroke="#80a485"/><path d="M1485,225L1484,314L1490,583Z" fill="#809f71" stroke="#809f71"/><path d="M-47,320L-48,582L-40,403Z" fill="#d08b52" stroke="#d08b52"/><path d="M-47,320L-40,403L43,310Z" fill="#ea9471" stroke="#ea9471"/><path d="M43,310L-40,403L46,409Z" fill="#ed9c6b" stroke="#ed9c6b"/><path d="M43,310L46,409L133,409Z" fill="#f2a972" stroke="#f2a972"/><path d="M43,310L133,409L140,313Z" fill="#f5b180" stroke="#f5b180"/><path d="M140,313L133,409L228,403Z" fill="#fbc07e" stroke="#fbc07e"/><path d="M140,313L228,403L228,316Z" fill="#fec78c" stroke="#fec78c"/><path d="M228,316L228,403L317,319Z" fill="#fed493" stroke="#fed493"/><path d="M317,319L228,403L315,406Z" fill="#feda8d" stroke="#feda8d"/><path d="M317,319L315,406L405,400Z" fill="#ffe695" stroke="#ffe695"/><path d="M317,319L405,400L402,315Z" fill="#ffeca3" stroke="#ffeca3"/><path d="M402,315L405,400L493,315Z" fill="#fff3ab" stroke="#fff3ab"/><path d="M493,315L405,400L495,403Z" fill="#fff6a6" stroke="#fff6a6"/><path d="M493,315L495,403L586,312Z" fill="#fffab7" stroke="#fffab7"/><path d="M586,312L495,403L590,409Z" fill="#fffdb1" stroke="#fffdb1"/><path d="M586,312L590,409L677,404Z" fill="#fcfeb0" stroke="#fcfeb0"/><path d="M586,312L677,404L677,312Z" fill="#f9fdb7" stroke="#f9fdb7"/><path d="M677,312L677,404L769,314Z" fill="#f3faaf" stroke="#f3faaf"/><path d="M769,314L677,404L767,408Z" fill="#f0f9a0" stroke="#f0f9a0"/><path d="M769,314L767,408L854,400Z" fill="#e9f699" stroke="#e9f699"/><path d="M769,314L854,400L853,313Z" fill="#e4f4a0" stroke="#e4f4a0"/><path d="M853,313L854,400L950,318Z" fill="#d9ef99" stroke="#d9ef99"/><path d="M950,318L854,400L944,407Z" fill="#d3ec8c" stroke="#d3ec8c"/><path d="M950,318L944,407L1040,404Z" fill="#c8e785" stroke="#c8e785"/><path d="M950,318L1040,404L1034,314Z" fill="#bee38d" stroke="#bee38d"/><path d="M1034,314L1040,404L1126,317Z" fill="#adda8c" stroke="#adda8c"/><path d="M1126,317L1040,404L1123,407Z" fill="#a3d680" stroke="#a3d680"/><path d="M1126,317L1123,407L1211,319Z" fill="#92ce87" stroke="#92ce87"/><path d="M1211,319L1123,407L1219,401Z" fill="#89ca7d" stroke="#89ca7d"/><path d="M1211,319L1219,401L1302,317Z" fill="#80c184" stroke="#80c184"/><path d="M1302,317L1219,401L1303,404Z" fill="#80bd79" stroke="#80bd79"/><path d="M1302,317L1303,404L1391,403Z" fill="#80b577" stroke="#80b577"/><path d="M1302,317L1391,403L1397,319Z" fill="#80b17f" stroke="#80b17f"/><path d="M1397,319L1391,403L1483,404Z" fill="#80a873" stroke="#80a873"/><path d="M1397,319L1483,404L1484,314Z" fill="#80a47b" stroke="#80a47b"/><path d="M1484,314L1483,404L1490,583Z" fill="#699d60" stroke="#699d60"/><path d="M-40,403L-48,582L-40,500Z" fill="#b18345" stroke="#b18345"/><path d="M-40,403L-40,500L46,409Z" fill="#d29356" stroke="#d29356"/><path d="M46,409L-40,500L50,500Z" fill="#c79951" stroke="#c79951"/><path d="M46,409L50,500L133,409Z" fill="#d9a761" stroke="#d9a761"/><path d="M133,409L50,500L140,491Z" fill="#d0ae5d" stroke="#d0ae5d"/><path d="M133,409L140,491L223,492Z" fill="#d7bc65" stroke="#d7bc65"/><path d="M133,409L223,492L228,403Z" fill="#e7c471" stroke="#e7c471"/><path d="M228,403L223,492L314,490Z" fill="#dccf71" stroke="#dccf71"/><path d="M228,403L314,490L315,406Z" fill="#e8d87d" stroke="#e8d87d"/><path d="M315,406L314,490L409,490Z" fill="#dce37d" stroke="#dce37d"/><path d="M315,406L409,490L405,400Z" fill="#e9eb89" stroke="#e9eb89"/><path d="M405,400L409,490L495,403Z" fill="#e9f191" stroke="#e9f191"/><path d="M495,403L409,490L497,495Z" fill="#dcf28d" stroke="#dcf28d"/><path d="M495,403L497,495L582,495Z" fill="#dbf794" stroke="#dbf794"/><path d="M495,403L582,495L590,409Z" fill="#e8faa0" stroke="#e8faa0"/><path d="M590,409L582,495L677,498Z" fill="#d7fa97" stroke="#d7fa97"/><path d="M590,409L677,498L677,404Z" fill="#e1fa9b" stroke="#e1fa9b"/><path d="M677,404L677,498L767,408Z" fill="#dbf894" stroke="#dbf894"/><path d="M767,408L677,498L769,498Z" fill="#cbf687" stroke="#cbf687"/><path d="M767,408L769,498L851,493Z" fill="#c5f380" stroke="#c5f380"/><path d="M767,408L851,493L854,400Z" fill="#cef285" stroke="#cef285"/><path d="M854,400L851,493L944,407Z" fill="#c3ed7f" stroke="#c3ed7f"/><path d="M944,407L851,493L948,497Z" fill="#afe973" stroke="#afe973"/><path d="M944,407L948,497L1032,496Z" fill="#a3e46c" stroke="#a3e46c"/><path d="M944,407L1032,496L1040,404Z" fill="#a8e173" stroke="#a8e173"/><path d="M1040,404L1032,496L1123,498Z" fill="#89d769" stroke="#89d769"/><path d="M1040,404L1123,498L1123,407Z" fill="#8cd46f" stroke="#8cd46f"/><path d="M1123,407L1123,498L1213,494Z" fill="#6ecb65" stroke="#6ecb65"/><path d="M1123,407L1213,494L1219,401Z" fill="#72c86c" stroke="#72c86c"/><path d="M1219,401L1213,494L1303,404Z" fill="#69bf6a" stroke="#69bf6a"/><path d="M1303,404L1213,494L1303,497Z" fill="#5cba60" stroke="#5cba60"/><path d="M1303,404L1303,497L1391,403Z" fill="#69b366" stroke="#69b366"/><path d="M1391,403L1303,497L1399,492Z" fill="#5cad5d" stroke="#5cad5d"/><path d="M1391,403L1399,492L1483,404Z" fill="#69a663" stroke="#69a663"/><path d="M1483,404L1399,492L1485,494Z" fill="#5ca059" stroke="#5ca059"/><path d="M1483,404L1485,494L1490,583Z" fill="#4a9553" stroke="#4a9553"/><path d="M-40,500L-48,582L48,584Z" fill="#887543" stroke="#887543"/><path d="M-40,500L48,584L50,500Z" fill="#9f864a" stroke="#9f864a"/><path d="M50,500L48,584L137,581Z" fill="#918b4f" stroke="#918b4f"/><path d="M50,500L137,581L140,491Z" fill="#aa9d56" stroke="#aa9d56"/><path d="M140,491L137,581L220,581Z" fill="#9ca15a" stroke="#9ca15a"/><path d="M140,491L220,581L223,492Z" fill="#b4b361" stroke="#b4b361"/><path d="M223,492L220,581L312,587Z" fill="#9eb465" stroke="#9eb465"/><path d="M223,492L312,587L314,490Z" fill="#b4c56d" stroke="#b4c56d"/><path d="M314,490L312,587L408,580Z" fill="#9fc871" stroke="#9fc871"/><path d="M314,490L408,580L409,490Z" fill="#b6da79" stroke="#b6da79"/><path d="M409,490L408,580L497,495Z" fill="#b5e081" stroke="#b5e081"/><path d="M497,495L408,580L493,586Z" fill="#9ed781" stroke="#9ed781"/><path d="M497,495L493,586L582,495Z" fill="#b3e58c" stroke="#b3e58c"/><path d="M582,495L493,586L588,589Z" fill="#9cdd8d" stroke="#9cdd8d"/><path d="M582,495L588,589L677,498Z" fill="#aee990" stroke="#aee990"/><path d="M677,498L588,589L674,584Z" fill="#96dd89" stroke="#96dd89"/><path d="M677,498L674,584L768,584Z" fill="#91db81" stroke="#91db81"/><path d="M677,498L768,584L769,498Z" fill="#a3e37f" stroke="#a3e37f"/><path d="M769,498L768,584L851,588Z" fill="#86d675" stroke="#86d675"/><path d="M769,498L851,588L851,493Z" fill="#97de75" stroke="#97de75"/><path d="M851,493L851,588L944,580Z" fill="#79d06c" stroke="#79d06c"/><path d="M851,493L944,580L948,497Z" fill="#89d86c" stroke="#89d86c"/><path d="M948,497L944,580L1033,580Z" fill="#68c962" stroke="#68c962"/><path d="M948,497L1033,580L1032,496Z" fill="#74cf63" stroke="#74cf63"/><path d="M1032,496L1033,580L1123,498Z" fill="#62c661" stroke="#62c661"/><path d="M1123,498L1033,580L1124,588Z" fill="#42b75c" stroke="#42b75c"/><path d="M1123,498L1124,588L1213,494Z" fill="#45b95d" stroke="#45b95d"/><path d="M1213,494L1124,588L1219,589Z" fill="#25aa59" stroke="#25aa59"/><path d="M1213,494L1219,589L1303,497Z" fill="#32ac59" stroke="#32ac59"/><path d="M1303,497L1219,589L1304,582Z" fill="#1d9e55" stroke="#1d9e55"/><path d="M1303,497L1304,582L1392,582Z" fill="#1f9653" stroke="#1f9653"/><path d="M1303,497L1392,582L1399,492Z" fill="#359c55" stroke="#359c55"/><path d="M1399,492L1392,582L1485,494Z" fill="#359452" stroke="#359452"/><path d="M1485,494L1392,582L1490,583Z" fill="#1f854e" stroke="#1f854e"/><path d="M-48,582L-46,769L-43,670Z" fill="#674433" stroke="#674433"/><path d="M-48,582L-43,670L48,584Z" fill="#6a613d" stroke="#6a613d"/><path d="M48,584L-43,670L48,677Z" fill="#6d5e3f" stroke="#6d5e3f"/><path d="M48,584L48,677L136,672Z" fill="#736c46" stroke="#736c46"/><path d="M48,584L136,672L137,581Z" fill="#767e4d" stroke="#767e4d"/><path d="M137,581L136,672L220,581Z" fill="#7b8c54" stroke="#7b8c54"/><path d="M220,581L136,672L222,672Z" fill="#7e8955" stroke="#7e8955"/><path d="M220,581L222,672L312,587Z" fill="#7f9f5f" stroke="#7f9f5f"/><path d="M312,587L222,672L314,677Z" fill="#7f9a60" stroke="#7f9a60"/><path d="M312,587L314,677L401,671Z" fill="#7fa768" stroke="#7fa768"/><path d="M312,587L401,671L408,580Z" fill="#7fb96f" stroke="#7fb96f"/><path d="M408,580L401,671L493,586Z" fill="#7fc077" stroke="#7fc077"/><path d="M493,586L401,671L493,672Z" fill="#7fb878" stroke="#7fb878"/><path d="M493,586L493,672L588,589Z" fill="#80c683" stroke="#80c683"/><path d="M588,589L493,672L586,674Z" fill="#80be84" stroke="#80be84"/><path d="M588,589L586,674L674,680Z" fill="#7dbe84" stroke="#7dbe84"/><path d="M588,589L674,680L674,584Z" fill="#7ac883" stroke="#7ac883"/><path d="M674,584L674,680L768,675Z" fill="#74bb78" stroke="#74bb78"/><path d="M674,584L768,675L768,584Z" fill="#71c577" stroke="#71c577"/><path d="M768,584L768,675L851,670Z" fill="#6ab96d" stroke="#6ab96d"/><path d="M768,584L851,670L851,588Z" fill="#65c06d" stroke="#65c06d"/><path d="M851,588L851,670L941,670Z" fill="#5ab263" stroke="#5ab263"/><path d="M851,588L941,670L944,580Z" fill="#55b963" stroke="#55b963"/><path d="M944,580L941,670L1033,580Z" fill="#49b55c" stroke="#49b55c"/><path d="M1033,580L941,670L1036,678Z" fill="#40a658" stroke="#40a658"/><path d="M1033,580L1036,678L1124,588Z" fill="#2ea758" stroke="#2ea758"/><path d="M1124,588L1036,678L1128,672Z" fill="#249853" stroke="#249853"/><path d="M1124,588L1128,672L1219,589Z" fill="#119954" stroke="#119954"/><path d="M1219,589L1128,672L1210,679Z" fill="#098b50" stroke="#098b50"/><path d="M1219,589L1210,679L1303,672Z" fill="#00824d" stroke="#00824d"/><path d="M1219,589L1303,672L1304,582Z" fill="#00894f" stroke="#00894f"/><path d="M1304,582L1303,672L1392,582Z" fill="#00824d" stroke="#00824d"/><path d="M1392,582L1303,672L1391,676Z" fill="#007349" stroke="#007349"/><path d="M1392,582L1391,676L1481,671Z" fill="#006b46" stroke="#006b46"/><path d="M1392,582L1481,671L1490,583Z" fill="#007148" stroke="#007148"/><path d="M1490,583L1481,671L1484,765Z" fill="#005741" stroke="#005741"/><path d="M-43,670L-46,769L49,763Z" fill="#6a3832" stroke="#6a3832"/><path d="M-43,670L49,763L48,677Z" fill="#6d4a39" stroke="#6d4a39"/><path d="M48,677L49,763L135,762Z" fill="#734d3d" stroke="#734d3d"/><path d="M48,677L135,762L136,672Z" fill="#765f44" stroke="#765f44"/><path d="M136,672L135,762L222,672Z" fill="#7b6d4b" stroke="#7b6d4b"/><path d="M222,672L135,762L227,768Z" fill="#7e694c" stroke="#7e694c"/><path d="M222,672L227,768L314,677Z" fill="#7f7f56" stroke="#7f7f56"/><path d="M314,677L227,768L318,766Z" fill="#7f7c57" stroke="#7f7c57"/><path d="M314,677L318,766L404,762Z" fill="#7f895f" stroke="#7f895f"/><path d="M314,677L404,762L401,671Z" fill="#7f9a66" stroke="#7f9a66"/><path d="M401,671L404,762L493,672Z" fill="#7fa16e" stroke="#7fa16e"/><path d="M493,672L404,762L495,762Z" fill="#7f996f" stroke="#7f996f"/><path d="M493,672L495,762L586,674Z" fill="#80a87a" stroke="#80a87a"/><path d="M586,674L495,762L588,767Z" fill="#809f7b" stroke="#809f7b"/><path d="M586,674L588,767L674,680Z" fill="#7daa7e" stroke="#7daa7e"/><path d="M674,680L588,767L676,765Z" fill="#7a9e77" stroke="#7a9e77"/><path d="M674,680L676,765L761,761Z" fill="#749d6f" stroke="#749d6f"/><path d="M674,680L761,761L768,675Z" fill="#71a66e" stroke="#71a66e"/><path d="M768,675L761,761L851,763Z" fill="#6a9964" stroke="#6a9964"/><path d="M768,675L851,763L851,670Z" fill="#65a164" stroke="#65a164"/><path d="M851,670L851,763L941,670Z" fill="#5a9d5d" stroke="#5a9d5d"/><path d="M941,670L851,763L945,762Z" fill="#549057" stroke="#549057"/><path d="M941,670L945,762L1036,678Z" fill="#499553" stroke="#499553"/><path d="M1036,678L945,762L1032,768Z" fill="#40854e" stroke="#40854e"/><path d="M1036,678L1032,768L1121,764Z" fill="#2e7d4c" stroke="#2e7d4c"/><path d="M1036,678L1121,764L1128,672Z" fill="#24834d" stroke="#24834d"/><path d="M1128,672L1121,764L1210,679Z" fill="#137b4b" stroke="#137b4b"/><path d="M1210,679L1121,764L1214,763Z" fill="#0a6d47" stroke="#0a6d47"/><path d="M1210,679L1214,763L1302,762Z" fill="#006445" stroke="#006445"/><path d="M1210,679L1302,762L1303,672Z" fill="#006b47" stroke="#006b47"/><path d="M1303,672L1302,762L1391,676Z" fill="#006344" stroke="#006344"/><path d="M1391,676L1302,762L1397,768Z" fill="#00533f" stroke="#00533f"/><path d="M1391,676L1397,768L1481,671Z" fill="#005540" stroke="#005540"/><path d="M1481,671L1397,768L1484,765Z" fill="#00463c" stroke="#00463c"/><path d="M-46,769L1397,768L1032,768Z" fill="#6a8d60" stroke="#6a8d60"/><path d="M-46,769L1032,768L227,768Z" fill="#7f8864" stroke="#7f8864"/><path d="M-46,769L227,768L49,763Z" fill="#73423a" stroke="#73423a"/><path d="M49,763L227,768L135,762Z" fill="#795142" stroke="#795142"/><path d="M227,768L1032,768L588,767Z" fill="#7d9578" stroke="#7d9578"/><path d="M227,768L588,767L318,766Z" fill="#7f8560" stroke="#7f8560"/><path d="M318,766L588,767L404,762Z" fill="#7f8b68" stroke="#7f8b68"/><path d="M404,762L588,767L495,762Z" fill="#809170" stroke="#809170"/><path d="M588,767L1032,768L676,765Z" fill="#6e8f64" stroke="#6e8f64"/><path d="M676,765L1032,768L851,763Z" fill="#5f895a" stroke="#5f895a"/><path d="M676,765L851,763L761,761Z" fill="#6e9165" stroke="#6e9165"/><path d="M851,763L1032,768L945,762Z" fill="#4f8250" stroke="#4f8250"/><path d="M1032,768L1397,768L1214,763Z" fill="#005d42" stroke="#005d42"/><path d="M1032,768L1214,763L1121,764Z" fill="#1c6b46" stroke="#1c6b46"/><path d="M1214,763L1397,768L1302,762Z" fill="#00513f" stroke="#00513f"/></g><filter id="noise"><feTurbulence type="fractalNoise" in="fillPaint" fill="#F00" baseFrequency="0.7" numOctaves="3" stitchTiles="stitch"/><feComponentTransfer><feFuncR type="linear" slope="2" intercept="-.5"/><feFuncG type="linear" slope="2" intercept="-.5"/><feFuncB type="linear" slope="2" intercept="-.5"/></feComponentTransfer><feColorMatrix type="matrix" values="0.3333 0.3333 0.3333 0 0 
 0.3333 0.3333 0.3333 0 0 
 0.3333 0.3333 0.3333 0 0 
 0 0 0 1 0"/></filter><rect opacity="1" width="100%" height="100%" filter="url(#noise)"/></svg>