<svg width="1366" height="667" xmlns="http://www.w3.org/2000/svg"><g><path d="M-57,-58L-61,296L-56,57Z" fill="#e66042" stroke="#e66042"/><path d="M-57,-58L-56,57L60,59Z" fill="#ea3c2e" stroke="#ea3c2e"/><path d="M-57,-58L60,59L64,-65Z" fill="#ed2e27" stroke="#ed2e27"/><path d="M64,-65L60,59L177,-56Z" fill="#f54131" stroke="#f54131"/><path d="M64,-65L177,-56L298,-62Z" fill="#fc432f" stroke="#fc432f"/><path d="M64,-65L298,-62L778,-60Z" fill="#ff6e48" stroke="#ff6e48"/><path d="M64,-65L778,-60L1015,-59Z" fill="#fc7e5f" stroke="#fc7e5f"/><path d="M64,-65L1015,-59L1505,-57Z" fill="#dd7141" stroke="#dd7141"/><path d="M177,-56L60,59L182,56Z" fill="#f86243" stroke="#f86243"/><path d="M177,-56L182,56L298,-62Z" fill="#fe5c40" stroke="#fe5c40"/><path d="M298,-62L182,56L296,65Z" fill="#fe7c52" stroke="#fe7c52"/><path d="M298,-62L296,65L416,64Z" fill="#fe8e5d" stroke="#fe8e5d"/><path d="M298,-62L416,64L421,-57Z" fill="#ff8055" stroke="#ff8055"/><path d="M298,-62L421,-57L541,-58Z" fill="#ff734e" stroke="#ff734e"/><path d="M298,-62L541,-58L778,-60Z" fill="#ff7c5e" stroke="#ff7c5e"/><path d="M421,-57L416,64L535,56Z" fill="#ff9e6c" stroke="#ff9e6c"/><path d="M421,-57L535,56L541,-58Z" fill="#ff8a65" stroke="#ff8a65"/><path d="M541,-58L535,56L656,60Z" fill="#ffa77c" stroke="#ffa77c"/><path d="M541,-58L656,60L665,-56Z" fill="#fc906d" stroke="#fc906d"/><path d="M541,-58L665,-56L778,-60Z" fill="#f87d5a" stroke="#f87d5a"/><path d="M665,-56L656,60L780,64Z" fill="#f4a56e" stroke="#f4a56e"/><path d="M665,-56L780,64L778,-60Z" fill="#f08c5d" stroke="#f08c5d"/><path d="M778,-60L780,64L900,57Z" fill="#e59d5f" stroke="#e59d5f"/><path d="M778,-60L900,57L901,-58Z" fill="#de824e" stroke="#de824e"/><path d="M778,-60L901,-58L1015,-59Z" fill="#d76e3d" stroke="#d76e3d"/><path d="M901,-58L900,57L1015,-59Z" fill="#cf7c45" stroke="#cf7c45"/><path d="M1015,-59L900,57L1024,56Z" fill="#c78e4d" stroke="#c78e4d"/><path d="M1015,-59L1024,56L1143,-58Z" fill="#ae6c3d" stroke="#ae6c3d"/><path d="M1015,-59L1143,-58L1505,-57Z" fill="#80452b" stroke="#80452b"/><path d="M1143,-58L1024,56L1145,61Z" fill="#a17e48" stroke="#a17e48"/><path d="M1143,-58L1145,61L1256,59Z" fill="#8a7345" stroke="#8a7345"/><path d="M1143,-58L1256,59L1261,-56Z" fill="#805737" stroke="#805737"/><path d="M1143,-58L1261,-56L1383,-56Z" fill="#803f29" stroke="#803f29"/><path d="M1143,-58L1383,-56L1505,-57Z" fill="#803426" stroke="#803426"/><path d="M1261,-56L1256,59L1376,60Z" fill="#806341" stroke="#806341"/><path d="M1261,-56L1376,60L1383,-56Z" fill="#804733" stroke="#804733"/><path d="M1383,-56L1376,60L1504,58Z" fill="#80513b" stroke="#80513b"/><path d="M1383,-56L1504,58L1505,-57Z" fill="#80352d" stroke="#80352d"/><path d="M1505,-57L1504,58L1503,785Z" fill="#809d85" stroke="#809d85"/><path d="M-56,57L-61,296L-57,177Z" fill="#e6835b" stroke="#e6835b"/><path d="M-56,57L-57,177L57,178Z" fill="#e97b53" stroke="#e97b53"/><path d="M-56,57L57,178L60,59Z" fill="#ed724c" stroke="#ed724c"/><path d="M60,59L57,178L179,179Z" fill="#f59863" stroke="#f59863"/><path d="M60,59L179,179L182,56Z" fill="#f98f5c" stroke="#f98f5c"/><path d="M182,56L179,179L296,65Z" fill="#fea266" stroke="#fea266"/><path d="M296,65L179,179L299,183Z" fill="#febe79" stroke="#febe79"/><path d="M296,65L299,183L416,64Z" fill="#febd76" stroke="#febd76"/><path d="M416,64L299,183L417,181Z" fill="#ffd788" stroke="#ffd788"/><path d="M416,64L417,181L535,56Z" fill="#ffcc85" stroke="#ffcc85"/><path d="M535,56L417,181L544,184Z" fill="#ffe197" stroke="#ffe197"/><path d="M535,56L544,184L656,60Z" fill="#ffd595" stroke="#ffd595"/><path d="M656,60L544,184L657,180Z" fill="#fce79f" stroke="#fce79f"/><path d="M656,60L657,180L780,64Z" fill="#f4d288" stroke="#f4d288"/><path d="M780,64L657,180L781,179Z" fill="#f0e28f" stroke="#f0e28f"/><path d="M780,64L781,179L896,176Z" fill="#e5dd85" stroke="#e5dd85"/><path d="M780,64L896,176L900,57Z" fill="#dec773" stroke="#dec773"/><path d="M900,57L896,176L1015,177Z" fill="#cfd277" stroke="#cfd277"/><path d="M900,57L1015,177L1024,56Z" fill="#c7bc66" stroke="#c7bc66"/><path d="M1024,56L1015,177L1139,181Z" fill="#afc36f" stroke="#afc36f"/><path d="M1024,56L1139,181L1145,61Z" fill="#a2ac62" stroke="#a2ac62"/><path d="M1145,61L1139,181L1256,177Z" fill="#8ab36b" stroke="#8ab36b"/><path d="M1145,61L1256,177L1256,59Z" fill="#809b5c" stroke="#809b5c"/><path d="M1256,59L1256,177L1376,60Z" fill="#809059" stroke="#809059"/><path d="M1376,60L1256,177L1376,185Z" fill="#809d65" stroke="#809d65"/><path d="M1376,60L1376,185L1498,179Z" fill="#809362" stroke="#809362"/><path d="M1376,60L1498,179L1504,58Z" fill="#807952" stroke="#807952"/><path d="M1504,58L1498,179L1499,302Z" fill="#80986a" stroke="#80986a"/><path d="M1504,58L1499,302L1502,420Z" fill="#809d84" stroke="#809d84"/><path d="M1504,58L1502,420L1503,785Z" fill="#6f9b63" stroke="#6f9b63"/><path d="M-57,177L-61,296L57,178Z" fill="#e9936d" stroke="#e9936d"/><path d="M57,178L-61,296L63,299Z" fill="#ed9c7f" stroke="#ed9c7f"/><path d="M57,178L63,299L179,179Z" fill="#f5af7d" stroke="#f5af7d"/><path d="M179,179L63,299L176,304Z" fill="#f8b990" stroke="#f8b990"/><path d="M179,179L176,304L299,183Z" fill="#fecb8d" stroke="#fecb8d"/><path d="M299,183L176,304L305,302Z" fill="#fed4a0" stroke="#fed4a0"/><path d="M299,183L305,302L417,181Z" fill="#fee59c" stroke="#fee59c"/><path d="M417,181L305,302L424,296Z" fill="#ffeeae" stroke="#ffeeae"/><path d="M417,181L424,296L544,184Z" fill="#fff5ac" stroke="#fff5ac"/><path d="M544,184L424,296L539,300Z" fill="#fff9be" stroke="#fff9be"/><path d="M544,184L539,300L663,302Z" fill="#ffffc9" stroke="#ffffc9"/><path d="M544,184L663,302L657,180Z" fill="#fcfeb8" stroke="#fcfeb8"/><path d="M657,180L663,302L782,295Z" fill="#f4fbba" stroke="#f4fbba"/><path d="M657,180L782,295L781,179Z" fill="#f0f9a7" stroke="#f0f9a7"/><path d="M781,179L782,295L896,176Z" fill="#e5f49d" stroke="#e5f49d"/><path d="M896,176L782,295L902,296Z" fill="#def1a5" stroke="#def1a5"/><path d="M896,176L902,296L1015,177Z" fill="#cfea90" stroke="#cfea90"/><path d="M1015,177L902,296L1024,295Z" fill="#c7e799" stroke="#c7e799"/><path d="M1015,177L1024,295L1139,181Z" fill="#afdb89" stroke="#afdb89"/><path d="M1139,181L1024,295L1143,305Z" fill="#a2d595" stroke="#a2d595"/><path d="M1139,181L1143,305L1256,177Z" fill="#8acb85" stroke="#8acb85"/><path d="M1256,177L1143,305L1261,304Z" fill="#80c590" stroke="#80c590"/><path d="M1256,177L1261,304L1376,185Z" fill="#80ba80" stroke="#80ba80"/><path d="M1376,185L1261,304L1381,303Z" fill="#80b48c" stroke="#80b48c"/><path d="M1376,185L1381,303L1499,302Z" fill="#80a989" stroke="#80a989"/><path d="M1376,185L1499,302L1498,179Z" fill="#80a379" stroke="#80a379"/><path d="M-61,296L-59,778L-56,542Z" fill="#90703f" stroke="#90703f"/><path d="M-61,296L-56,542L-57,417Z" fill="#d68855" stroke="#d68855"/><path d="M-61,296L-57,417L63,299Z" fill="#ea9373" stroke="#ea9373"/><path d="M63,299L-57,417L58,416Z" fill="#ed9d6a" stroke="#ed9d6a"/><path d="M63,299L58,416L176,304Z" fill="#f5af81" stroke="#f5af81"/><path d="M176,304L58,416L181,419Z" fill="#f8b979" stroke="#f8b979"/><path d="M176,304L181,419L305,302Z" fill="#fecc90" stroke="#fecc90"/><path d="M305,302L181,419L303,420Z" fill="#fed589" stroke="#fed589"/><path d="M305,302L303,420L424,421Z" fill="#ffe693" stroke="#ffe693"/><path d="M305,302L424,421L424,296Z" fill="#ffeea5" stroke="#ffeea5"/><path d="M424,296L424,421L539,300Z" fill="#fff5b0" stroke="#fff5b0"/><path d="M539,300L424,421L538,424Z" fill="#fff8a7" stroke="#fff8a7"/><path d="M539,300L538,424L656,415Z" fill="#ffffb2" stroke="#ffffb2"/><path d="M539,300L656,415L663,302Z" fill="#fcfebc" stroke="#fcfebc"/><path d="M663,302L656,415L782,421Z" fill="#f4fba4" stroke="#f4fba4"/><path d="M663,302L782,421L782,295Z" fill="#f0f9ab" stroke="#f0f9ab"/><path d="M782,295L782,421L902,296Z" fill="#e5f4a3" stroke="#e5f4a3"/><path d="M902,296L782,421L901,424Z" fill="#ddf190" stroke="#ddf190"/><path d="M902,296L901,424L1019,421Z" fill="#cfea88" stroke="#cfea88"/><path d="M902,296L1019,421L1024,295Z" fill="#c6e692" stroke="#c6e692"/><path d="M1024,295L1019,421L1143,305Z" fill="#aedb8d" stroke="#aedb8d"/><path d="M1143,305L1019,421L1141,420Z" fill="#a2d67e" stroke="#a2d67e"/><path d="M1143,305L1141,420L1257,424Z" fill="#89ca7a" stroke="#89ca7a"/><path d="M1143,305L1257,424L1261,304Z" fill="#80c585" stroke="#80c585"/><path d="M1261,304L1257,424L1379,421Z" fill="#7fba75" stroke="#7fba75"/><path d="M1261,304L1379,421L1381,303Z" fill="#80b481" stroke="#80b481"/><path d="M1381,303L1379,421L1502,420Z" fill="#80a971" stroke="#80a971"/><path d="M1381,303L1502,420L1499,302Z" fill="#80a37c" stroke="#80a37c"/><path d="M-57,417L-56,542L59,535Z" fill="#b18848" stroke="#b18848"/><path d="M-57,417L59,535L58,416Z" fill="#cd9a55" stroke="#cd9a55"/><path d="M58,416L59,535L181,419Z" fill="#d4ac5f" stroke="#d4ac5f"/><path d="M181,419L59,535L178,538Z" fill="#c0ae5d" stroke="#c0ae5d"/><path d="M181,419L178,538L301,536Z" fill="#c5c067" stroke="#c5c067"/><path d="M181,419L301,536L303,420Z" fill="#ddd173" stroke="#ddd173"/><path d="M303,420L301,536L416,539Z" fill="#c5da76" stroke="#c5da76"/><path d="M303,420L416,539L424,421Z" fill="#ddea82" stroke="#ddea82"/><path d="M424,421L416,539L538,538Z" fill="#c5e985" stroke="#c5e985"/><path d="M424,421L538,538L538,424Z" fill="#ddf591" stroke="#ddf591"/><path d="M538,424L538,538L658,539Z" fill="#c5f295" stroke="#c5f295"/><path d="M538,424L658,539L656,415Z" fill="#dbfa99" stroke="#dbfa99"/><path d="M656,415L658,539L782,421Z" fill="#d3f88f" stroke="#d3f88f"/><path d="M782,421L658,539L785,544Z" fill="#b5ec81" stroke="#b5ec81"/><path d="M782,421L785,544L899,537Z" fill="#aae778" stroke="#aae778"/><path d="M782,421L899,537L901,424Z" fill="#bbed7a" stroke="#bbed7a"/><path d="M901,424L899,537L1015,543Z" fill="#94de6b" stroke="#94de6b"/><path d="M901,424L1015,543L1019,421Z" fill="#a4e36d" stroke="#a4e36d"/><path d="M1019,421L1015,543L1141,544Z" fill="#73cf63" stroke="#73cf63"/><path d="M1019,421L1141,544L1141,420Z" fill="#80d268" stroke="#80d268"/><path d="M1141,420L1141,544L1257,424Z" fill="#67c765" stroke="#67c765"/><path d="M1257,424L1141,544L1262,536Z" fill="#45b85d" stroke="#45b85d"/><path d="M1257,424L1262,536L1379,421Z" fill="#5eb660" stroke="#5eb660"/><path d="M1379,421L1262,536L1384,539Z" fill="#47a858" stroke="#47a858"/><path d="M1379,421L1384,539L1496,539Z" fill="#469d55" stroke="#469d55"/><path d="M1379,421L1496,539L1502,420Z" fill="#5ea05a" stroke="#5ea05a"/><path d="M1502,420L1496,539L1502,663Z" fill="#28834d" stroke="#28834d"/><path d="M1502,420L1502,663L1503,785Z" fill="#006745" stroke="#006745"/><path d="M-56,542L-59,778L-55,660Z" fill="#664733" stroke="#664733"/><path d="M-56,542L-55,660L64,661Z" fill="#6a5e3c" stroke="#6a5e3c"/><path d="M-56,542L64,661L59,535Z" fill="#7a7645" stroke="#7a7645"/><path d="M59,535L64,661L178,538Z" fill="#828950" stroke="#828950"/><path d="M178,538L64,661L176,665Z" fill="#798350" stroke="#798350"/><path d="M178,538L176,665L303,663Z" fill="#7e955a" stroke="#7e955a"/><path d="M178,538L303,663L301,536Z" fill="#8bad64" stroke="#8bad64"/><path d="M301,536L303,663L416,539Z" fill="#8bbe6e" stroke="#8bbe6e"/><path d="M416,539L303,663L421,664Z" fill="#7fb76f" stroke="#7fb76f"/><path d="M416,539L421,664L538,538Z" fill="#8bcd7d" stroke="#8bcd7d"/><path d="M538,538L421,664L537,665Z" fill="#80c27f" stroke="#80c27f"/><path d="M538,538L537,665L658,539Z" fill="#8bd78d" stroke="#8bd78d"/><path d="M658,539L537,665L664,662Z" fill="#7cc786" stroke="#7cc786"/><path d="M658,539L664,662L775,658Z" fill="#75c57b" stroke="#75c57b"/><path d="M658,539L775,658L785,544Z" fill="#7cd17a" stroke="#7cd17a"/><path d="M785,544L775,658L903,662Z" fill="#65be6c" stroke="#65be6c"/><path d="M785,544L903,662L899,537Z" fill="#69c96b" stroke="#69c96b"/><path d="M899,537L903,662L1015,543Z" fill="#5bc263" stroke="#5bc263"/><path d="M1015,543L903,662L1018,659Z" fill="#48b15b" stroke="#48b15b"/><path d="M1015,543L1018,659L1141,544Z" fill="#3ab35b" stroke="#3ab35b"/><path d="M1141,544L1018,659L1141,655Z" fill="#23a056" stroke="#23a056"/><path d="M1141,544L1141,655L1257,664Z" fill="#0b9552" stroke="#0b9552"/><path d="M1141,544L1257,664L1262,536Z" fill="#0b9c55" stroke="#0b9c55"/><path d="M1262,536L1257,664L1376,655Z" fill="#00854e" stroke="#00854e"/><path d="M1262,536L1376,655L1384,539Z" fill="#0e8d50" stroke="#0e8d50"/><path d="M1384,539L1376,655L1496,539Z" fill="#0d824d" stroke="#0d824d"/><path d="M1496,539L1376,655L1502,663Z" fill="#006e47" stroke="#006e47"/><path d="M-55,660L-59,778L62,782Z" fill="#6a3430" stroke="#6a3430"/><path d="M-55,660L62,782L64,661Z" fill="#6e4b39" stroke="#6e4b39"/><path d="M64,661L62,782L176,665Z" fill="#755d43" stroke="#755d43"/><path d="M176,665L62,782L185,778Z" fill="#795944" stroke="#795944"/><path d="M176,665L185,778L303,663Z" fill="#7e7a53" stroke="#7e7a53"/><path d="M303,663L185,778L296,778Z" fill="#7f7554" stroke="#7f7554"/><path d="M303,663L296,778L415,783Z" fill="#7f855e" stroke="#7f855e"/><path d="M303,663L415,783L421,664Z" fill="#7f9b67" stroke="#7f9b67"/><path d="M421,664L415,783L538,779Z" fill="#7f956d" stroke="#7f956d"/><path d="M421,664L538,779L537,665Z" fill="#80a677" stroke="#80a677"/><path d="M537,665L538,779L657,780Z" fill="#809f7d" stroke="#809f7d"/><path d="M537,665L657,780L664,662Z" fill="#7cac7e" stroke="#7cac7e"/><path d="M664,662L657,780L783,778Z" fill="#749b6f" stroke="#749b6f"/><path d="M664,662L783,778L775,658Z" fill="#71a86e" stroke="#71a86e"/><path d="M775,658L783,778L903,662Z" fill="#65a364" stroke="#65a364"/><path d="M903,662L783,778L897,776Z" fill="#5e925c" stroke="#5e925c"/><path d="M903,662L897,776L1018,782Z" fill="#4f8b53" stroke="#4f8b53"/><path d="M903,662L1018,782L1018,659Z" fill="#489553" stroke="#489553"/><path d="M1018,659L1018,782L1144,777Z" fill="#2f7c4c" stroke="#2f7c4c"/><path d="M1018,659L1144,777L1141,655Z" fill="#23854e" stroke="#23854e"/><path d="M1141,655L1144,777L1257,664Z" fill="#0a794b" stroke="#0a794b"/><path d="M1257,664L1144,777L1259,776Z" fill="#006645" stroke="#006645"/><path d="M1257,664L1259,776L1376,655Z" fill="#006946" stroke="#006946"/><path d="M1376,655L1259,776L1381,781Z" fill="#005640" stroke="#005640"/><path d="M1376,655L1381,781L1502,663Z" fill="#005741" stroke="#005741"/><path d="M1502,663L1381,781L1503,785Z" fill="#00423b" stroke="#00423b"/><path d="M62,782L415,783L185,778Z" fill="#7e5e4b" stroke="#7e5e4b"/><path d="M185,778L415,783L296,778Z" fill="#7f6f55" stroke="#7f6f55"/><path d="M415,783L1503,785L1018,782Z" fill="#48784b" stroke="#48784b"/><path d="M415,783L1018,782L657,780Z" fill="#758d6b" stroke="#758d6b"/><path d="M415,783L657,780L538,779Z" fill="#808e74" stroke="#808e74"/><path d="M657,780L1018,782L783,778Z" fill="#66875c" stroke="#66875c"/><path d="M783,778L1018,782L897,776Z" fill="#578154" stroke="#578154"/><path d="M1018,782L1503,785L1381,781Z" fill="#004b3d" stroke="#004b3d"/><path d="M1018,782L1381,781L1144,777Z" fill="#0a5d42" stroke="#0a5d42"/><path d="M1144,777L1381,781L1259,776Z" fill="#005240" stroke="#005240"/></g><filter id="noise"><feTurbulence type="fractalNoise" in="fillPaint" fill="#F00" baseFrequency="0.7" numOctaves="3" stitchTiles="stitch"/><feComponentTransfer><feFuncR type="linear" slope="2" intercept="-.5"/><feFuncG type="linear" slope="2" intercept="-.5"/><feFuncB type="linear" slope="2" intercept="-.5"/></feComponentTransfer><feColorMatrix type="matrix" values="0.3333 0.3333 0.3333 0 0 
 0.3333 0.3333 0.3333 0 0 
 0.3333 0.3333 0.3333 0 0 
 0 0 0 1 0"/></filter><rect opacity="0.6000000000000001" width="100%" height="100%" filter="url(#noise)"/></svg>