<?xml version="1.0" encoding="utf-8"?>
<!-- Generator: Adobe Illustrator 17.0.0, SVG Export Plug-In . SVG Version: 6.00 Build 0)  -->
<!DOCTYPE svg PUBLIC "-//W3C//DTD SVG 1.1//EN" "http://www.w3.org/Graphics/SVG/1.1/DTD/svg11.dtd">
<svg version="1.1" id="Слой_1" xmlns="http://www.w3.org/2000/svg" xmlns:xlink="http://www.w3.org/1999/xlink" x="0px" y="0px"
	 width="27px" height="27px" viewBox="0 0 27 27" enable-background="new 0 0 27 27" xml:space="preserve">
<path fill="#FC7641" d="M13.5,0C6.06,0,0,6.06,0,13.5C0,20.94,6.06,27,13.5,27C20.94,27,27,20.94,27,13.5C27,6.06,20.94,0,13.5,0z
	 M14.55,19.44c-0.24,0.06-0.45,0.06-0.69,0.06C14.1,19.53,14.34,19.47,14.55,19.44c1.59-0.33,2.76-1.71,2.76-3.39
	c0-1.92-1.56-3.45-3.48-3.45v1.71l-2.91-1.71l-2.94-1.71l2.94-1.71l2.94-1.71v1.68c2.85,0,5.19,2.31,5.19,5.19
	C19.05,16.95,17.07,19.11,14.55,19.44z"/>
</svg>
